<svg width="28" height="28" viewBox="0 0 28 28" fill="none" xmlns="http://www.w3.org/2000/svg"><circle cx="14" cy="14" r="13.346" fill="#F5F5F5" stroke="#DDD" stroke-width="1.308"/><path fill-rule="evenodd" clip-rule="evenodd" d="M14 5.6c-4.64 0-8.4 3.855-8.4 8.614 0 3.808 2.408 7.033 5.744 8.176.418.079.573-.186.573-.418 0-.207-.005-.746-.01-1.465-2.336.518-2.832-1.153-2.832-1.153-.381-.994-.933-1.264-.933-1.264-.763-.534.057-.523.057-.523.84.063 1.289.888 1.289.888.748 1.317 1.965.936 2.444.714.078-.555.294-.936.531-1.153-1.861-.211-3.82-.951-3.82-4.251 0-.942.324-1.708.866-2.311-.088-.222-.377-1.095.077-2.28 0 0 .706-.232 2.31.884A7.962 7.962 0 0 1 14 9.767a7.99 7.99 0 0 1 2.104.29c1.604-1.115 2.31-.882 2.31-.882.459 1.184.17 2.062.082 2.279.537.603.862 1.37.862 2.31 0 3.311-1.965 4.035-3.837 4.252.3.265.572.794.572 1.597 0 1.153-.01 2.079-.01 2.364 0 .233.15.497.578.413 3.336-1.143 5.739-4.368 5.739-8.17 0-4.765-3.76-8.62-8.4-8.62Z" fill="#191717"/></svg>